<?xml version="1.0" encoding="utf-8"?>
<!-- Generator: Adobe Illustrator 15.1.0, SVG Export Plug-In . SVG Version: 6.00 Build 0)  -->
<!DOCTYPE svg PUBLIC "-//W3C//DTD SVG 1.1//EN" "http://www.w3.org/Graphics/SVG/1.1/DTD/svg11.dtd">
<svg version="1.1" id="Layer_1" xmlns="http://www.w3.org/2000/svg" xmlns:xlink="http://www.w3.org/1999/xlink" x="0px" y="0px"
	 width="46px" height="54px" viewBox="0 0 46 54" enable-background="new 0 0 46 54" xml:space="preserve">
<polygon fill="#E0E0E0" points="23.2,35.2 11,27.2 11,33.6 23.2,41.6 41,30.1 41,36.2 23.1,47.6 5,36.1 5,10 23.1,21.5 41,10 
	41,20.2 46,16.6 46,0.1 23.1,15.1 0,0.1 0,39.1 23.1,54.1 46,39.1 46,20 "/>
<polygon fill="#FFFFFF" points="23,54.1 46,39.1 46,20 23.2,35.2 23.2,41.6 41,30.1 41,36.2 23,47.6 "/>
<polygon fill="#FFFFFF" points="23,15.1 46,0.1 46,16.6 41,20.2 41,10 23,21.6 "/>
</svg>
